<svg xmlns="http://www.w3.org/2000/svg" width="45.713" height="53.336" viewBox="0 0 45.713 53.336">
  <path id="Icon_ionic-ios-refresh" data-name="Icon ionic-ios-refresh" d="M48.431,32.823a1.776,1.776,0,0,0-1.774,1.619A19.328,19.328,0,1,1,26.894,13.619a.466.466,0,0,1,.488.476v5.988a1.909,1.909,0,0,0,2.929,1.607l11.453-8.012a1.9,1.9,0,0,0,0-3.226L30.323,2.547a1.909,1.909,0,0,0-2.929,1.607V9.6a.468.468,0,0,1-.464.476A22.761,22.761,0,1,0,50.205,34.739a1.77,1.77,0,0,0-1.774-1.917Z" transform="translate(-4.5 -2.25)" fill="#1e1e1e"/>
</svg>
